<svg xmlns="http://www.w3.org/2000/svg" xmlns:xlink="http://www.w3.org/1999/xlink"
    xmlns:ev="http://www.w3.org/2001/xml-events">

    <symbol viewBox="0 0 16 16" id="edit-gear">
        <path fill="currentColor" d="M15.2 6l-1.1-0.2c-0.1-0.2-0.1-0.4-0.2-0.6l0.6-0.9 0.5-0.7-2.6-2.6-0.7 0.5-0.9 0.6c-0.2-0.1-0.4-0.1-0.6-0.2l-0.2-1.1-0.2-0.8h-3.6l-0.2 0.8-0.2 1.1c-0.2 0.1-0.4 0.1-0.6 0.2l-0.9-0.6-0.7-0.4-2.5 2.5 0.5 0.7 0.6 0.9c-0.2 0.2-0.2 0.4-0.3 0.6l-1.1 0.2-0.8 0.2v3.6l0.8 0.2 1.1 0.2c0.1 0.2 0.1 0.4 0.2 0.6l-0.6 0.9-0.5 0.7 2.6 2.6 0.7-0.5 0.9-0.6c0.2 0.1 0.4 0.1 0.6 0.2l0.2 1.1 0.2 0.8h3.6l0.2-0.8 0.2-1.1c0.2-0.1 0.4-0.1 0.6-0.2l0.9 0.6 0.7 0.5 2.6-2.6-0.5-0.7-0.6-0.9c0.1-0.2 0.2-0.4 0.2-0.6l1.1-0.2 0.8-0.2v-3.6l-0.8-0.2zM15 9l-1.7 0.3c-0.1 0.5-0.3 1-0.6 1.5l0.9 1.4-1.4 1.4-1.4-0.9c-0.5 0.3-1 0.5-1.5 0.6l-0.3 1.7h-2l-0.3-1.7c-0.5-0.1-1-0.3-1.5-0.6l-1.4 0.9-1.4-1.4 0.9-1.4c-0.3-0.5-0.5-1-0.6-1.5l-1.7-0.3v-2l1.7-0.3c0.1-0.5 0.3-1 0.6-1.5l-1-1.4 1.4-1.4 1.4 0.9c0.5-0.3 1-0.5 1.5-0.6l0.4-1.7h2l0.3 1.7c0.5 0.1 1 0.3 1.5 0.6l1.4-0.9 1.4 1.4-0.9 1.4c0.3 0.5 0.5 1 0.6 1.5l1.7 0.3v2z"></path>
        <path fill="currentColor" d="M8 4.5c-1.9 0-3.5 1.6-3.5 3.5s1.6 3.5 3.5 3.5 3.5-1.6 3.5-3.5c0-1.9-1.6-3.5-3.5-3.5zM8 10.5c-1.4 0-2.5-1.1-2.5-2.5s1.1-2.5 2.5-2.5 2.5 1.1 2.5 2.5c0 1.4-1.1 2.5-2.5 2.5z"></path>
    </symbol>
    <symbol viewBox="0 0 20 20" id="delete">
        <path fill="currentColor" d="M1 5 L5 1 L10 6 L15 1 L19 5 L14 10 L19 15 L15 19 L10 14 L5 19 L1 15 L6 10 Z" />
    </symbol>
    <symbol viewBox="0 0 128 128" id="search">
        <path fill="currentColor" d="M 52.349609 14.400391 C 42.624609 14.400391 32.9 18.1 25.5 25.5 C 10.7 40.3 10.7 64.399219 25.5 79.199219 C 32.9 86.599219 42.600391 90.300781 52.400391 90.300781 C 62.200391 90.300781 71.900781 86.599219 79.300781 79.199219 C 94.000781 64.399219 93.999219 40.3 79.199219 25.5 C 71.799219 18.1 62.074609 14.400391 52.349609 14.400391 z M 52.300781 20.300781 C 60.500781 20.300781 68.700391 23.399219 74.900391 29.699219 C 87.400391 42.199219 87.4 62.5 75 75 C 62.5 87.5 42.199219 87.5 29.699219 75 C 17.199219 62.5 17.199219 42.199219 29.699219 29.699219 C 35.899219 23.499219 44.100781 20.300781 52.300781 20.300781 z M 52.300781 26.300781 C 45.400781 26.300781 38.9 29 34 34 C 29.3 38.7 26.700391 44.800391 26.400391 51.400391 C 26.300391 53.100391 27.600781 54.4 29.300781 54.5 L 29.400391 54.5 C 31.000391 54.5 32.300391 53.199609 32.400391 51.599609 C 32.600391 46.499609 34.699219 41.799219 38.199219 38.199219 C 41.999219 34.399219 47.000781 32.300781 52.300781 32.300781 C 54.000781 32.300781 55.300781 31.000781 55.300781 29.300781 C 55.300781 27.600781 54.000781 26.300781 52.300781 26.300781 z M 35 64 A 3 3 0 0 0 32 67 A 3 3 0 0 0 35 70 A 3 3 0 0 0 38 67 A 3 3 0 0 0 35 64 z M 83.363281 80.5 C 82.600781 80.5 81.850781 80.800391 81.300781 81.400391 C 80.100781 82.600391 80.100781 84.499609 81.300781 85.599609 L 83.800781 88.099609 C 83.200781 89.299609 82.900391 90.6 82.900391 92 C 82.900391 94.4 83.8 96.700391 85.5 98.400391 L 98.300781 111 C 100.10078 112.8 102.39922 113.69922 104.69922 113.69922 C 106.99922 113.69922 109.29961 112.79961 111.09961 111.09961 C 114.59961 107.59961 114.59961 101.90039 111.09961 98.400391 L 98.300781 85.599609 C 96.600781 83.899609 94.300391 83 91.900391 83 C 90.500391 83 89.2 83.300391 88 83.900391 L 85.5 81.400391 C 84.9 80.800391 84.125781 80.5 83.363281 80.5 z M 91.900391 88.900391 C 92.700391 88.900391 93.5 89.200781 94 89.800781 L 106.69922 102.5 C 107.89922 103.7 107.89922 105.59922 106.69922 106.69922 C 105.49922 107.89922 103.6 107.89922 102.5 106.69922 L 89.800781 94.099609 C 89.200781 93.499609 88.900391 92.700391 88.900391 91.900391 C 88.900391 91.100391 89.200781 90.300781 89.800781 89.800781 C 90.400781 89.200781 91.100391 88.900391 91.900391 88.900391 z"/>
    </symbol>
    <symbol viewBox="0 0 512 512" id="filter">
        <g fill="currentColor" transform="scale(0.85) translate(40,40)">
            <path d="m420.404 0h-328.808c-50.506 0-91.596 41.09-91.596 91.596v328.809c0 50.505 41.09 91.595 91.596 91.595h328.809c50.505 0 91.595-41.09 91.595-91.596v-328.808c0-50.506-41.09-91.596-91.596-91.596zm61.596 420.404c0 33.964-27.632 61.596-61.596 61.596h-328.808c-33.964 0-61.596-27.632-61.596-61.596v-328.808c0-33.964 27.632-61.596 61.596-61.596h328.809c33.963 0 61.595 27.632 61.595 61.596z"/>
            <path d="m432.733 112.467h-228.461c-6.281-18.655-23.926-32.133-44.672-32.133s-38.391 13.478-44.672 32.133h-35.661c-8.284 0-15 6.716-15 15s6.716 15 15 15h35.662c6.281 18.655 23.926 32.133 44.672 32.133s38.391-13.478 44.672-32.133h228.461c8.284 0 15-6.716 15-15s-6.716-15-15.001-15zm-273.133 32.133c-9.447 0-17.133-7.686-17.133-17.133s7.686-17.133 17.133-17.133 17.133 7.686 17.133 17.133-7.686 17.133-17.133 17.133z"/>
            <path d="m432.733 241h-35.662c-6.281-18.655-23.927-32.133-44.672-32.133s-38.39 13.478-44.671 32.133h-228.461c-8.284 0-15 6.716-15 15s6.716 15 15 15h228.461c6.281 18.655 23.927 32.133 44.672 32.133s38.391-13.478 44.672-32.133h35.662c8.284 0 15-6.716 15-15s-6.716-15-15.001-15zm-80.333 32.133c-9.447 0-17.133-7.686-17.133-17.133s7.686-17.133 17.133-17.133 17.133 7.686 17.133 17.133-7.686 17.133-17.133 17.133z"/>
            <path d="m432.733 369.533h-164.194c-6.281-18.655-23.926-32.133-44.672-32.133s-38.391 13.478-44.672 32.133h-99.928c-8.284 0-15 6.716-15 15s6.716 15 15 15h99.928c6.281 18.655 23.926 32.133 44.672 32.133s38.391-13.478 44.672-32.133h164.195c8.284 0 15-6.716 15-15s-6.716-15-15.001-15zm-208.866 32.134c-9.447 0-17.133-7.686-17.133-17.133s7.686-17.133 17.133-17.133 17.133 7.685 17.133 17.132-7.686 17.134-17.133 17.134z"/>
        </g>
    </symbol>
    <symbol viewBox="0 0 26000 63989" id="rocket">
        <path fill="currentColor" d="M9864 41034l6234 -31c248,-1525 959,-3541 1800,-5927 2571,-7286 6438,-18257 1094,-26891 -1910,531 -3854,797 -5825,798 -2008,1 -4043,-273 -6103,-822 -5501,8845 -1495,20149 1098,27453 770,2171 1424,4009 1702,5419zm378 4960l2759 12411 2757 -12411 -5516 0zm7709 -690l-3975 17893 -2 11c-81,366 -367,672 -757,757 -536,118 -1069,-221 -1187,-757l-3980 -17904c-32,-98 -50,-202 -50,-311l0 -26 0 -1325 -6557 3244c-494,243 -1092,41 -1336,-452 -70,-142 -103,-293 -103,-442l-4 0 0 -13999c0,-353 184,-663 461,-841l3311 -2618c-2530,-9353 -3217,-20840 8689,-28383l2 5c313,-198 725,-214 1059,-5 2923,1832 5084,3896 6648,6106 110,100 197,226 255,371 4573,6796 3634,14903 1718,21838l3397 2687c276,178 459,488 459,841l0 13999 -4 0c0,149 -33,300 -103,442 -243,494 -842,696 -1336,452l-6557 -3246 0 1352c0,109 -18,213 -50,311zm-7951 -2279l0 968 6000 0 0 -999 -6000 31zm8044 -1586l5955 2947 0 -11915 -2459 -1946c-579,1868 -1199,3625 -1760,5216 -844,2394 -1550,4394 -1736,5699zm-13678 -10839l-2366 1871 0 11915 5915 -2927c-235,-1235 -875,-3038 -1636,-5180 -607,-1710 -1287,-3627 -1913,-5679zm-3906 553c157,-100 341,-159 540,-159m16758 -24547c-1226,-1527 -2788,-2961 -4756,-4264 -1935,1294 -3479,2716 -4698,4232 1650,385 3272,579 4862,579 1548,0 3080,-183 4592,-547zm-4757 6548c1102,0 2105,448 2829,1172 724,724 1172,1727 1172,2829 0,1105 -448,2106 -1172,2830 -724,724 -1727,1172 -2829,1172 -1102,0 -2105,-448 -2829,-1172 -724,-724 -1172,-1724 -1172,-2830 0,-1102 448,-2105 1172,-2829 724,-724 1727,-1172 2829,-1172zm1414 2587c-361,-361 -863,-586 -1414,-586 -550,0 -1052,224 -1414,586 -361,361 -586,863 -586,1414 0,553 224,1054 586,1415 361,361 863,586 1414,586 550,0 1052,-224 1414,-586 361,-361 586,-862 586,-1415 0,-550 -224,-1052 -586,-1414z"/>
    </symbol>
    <symbol viewBox="0 0 204 025" id="bugs" >
        <g transform="translate(-50,-150)" fill="currentColor">
                <path d="M184.921,173.594C184.922,175.957 184.922,178.382 184.922,180.809L201.348,190.293C201.661,190.474 201.83,190.809 201.813,191.146C201.814,191.161 201.814,191.177 201.814,191.192L201.814,213.796L214.29,220.999C214.419,221.058 214.545,221.123 214.67,221.195L226.908,228.26C229.061,229.503 229.8,232.261 228.556,234.414C227.313,236.567 224.556,237.306 222.402,236.063L216.899,232.886C216.838,232.866 216.779,232.84 216.722,232.807L193.27,219.267C192.942,219.078 192.773,218.719 192.809,218.365C192.806,218.334 192.804,218.303 192.804,218.271L192.804,195.764L184.915,191.209C184.909,195.241 184.9,199.018 184.885,202.225C184.85,209.926 184.867,217.763 173.885,227.952C166.801,234.524 157.978,236.136 153.289,236.511L153.289,178.261C153.289,176.446 151.815,174.973 150,174.973C148.185,174.973 146.711,176.446 146.711,178.261L146.711,236.511C142.022,236.136 133.199,234.524 126.115,227.952C115.133,217.763 115.15,209.926 115.115,202.225C115.101,199.101 115.091,195.435 115.086,191.519L107.733,195.764L107.733,218.271C107.733,218.303 107.731,218.334 107.728,218.365C107.764,218.719 107.595,219.078 107.267,219.267L83.816,232.807C83.758,232.84 83.699,232.866 83.638,232.886L78.135,236.063C75.981,237.306 73.224,236.567 71.981,234.414C70.738,232.261 71.476,229.503 73.63,228.26L85.867,221.195C85.992,221.123 86.119,221.058 86.247,220.999L98.723,213.796L98.723,191.192C98.723,191.177 98.723,191.161 98.724,191.146C98.708,190.809 98.876,190.474 99.189,190.293L115.078,181.12C115.078,178.589 115.078,176.058 115.079,173.594L105.403,173.594L92.724,186.273C92.649,186.347 92.565,186.407 92.476,186.451C91.064,187.687 88.967,187.954 87.253,186.964L75.015,179.899C72.862,178.655 72.123,175.898 73.367,173.745C74.61,171.591 77.367,170.852 79.521,172.096L88.801,177.454L101.398,164.857C101.637,164.618 101.974,164.536 102.28,164.611C102.351,164.593 102.426,164.584 102.503,164.584L115.086,164.584L115.089,161.922L115.093,159.01L113.281,159.01L106.134,159.01C105.62,159.01 105.202,158.593 105.202,158.078L105.202,138.935L96.531,130.263C94.773,128.505 94.773,125.65 96.531,123.892C98.289,122.134 101.144,122.134 102.902,123.892L112.894,133.884C113.648,134.638 114.079,135.595 114.186,136.58C114.203,136.651 114.212,136.725 114.212,136.801L114.212,150L186.494,150L186.494,136.801C186.494,136.725 186.503,136.651 186.52,136.58C186.627,135.595 187.058,134.638 187.812,133.884L197.804,123.892C199.562,122.134 202.417,122.134 204.175,123.892C205.933,125.65 205.933,128.505 204.175,130.263L195.504,138.935L195.504,158.078C195.504,158.593 195.086,159.01 194.572,159.01L184.907,159.01L184.911,161.894L184.914,164.584L197.903,164.584C197.98,164.584 198.054,164.593 198.126,164.611C198.432,164.536 198.769,164.618 199.008,164.857L211.605,177.454L220.885,172.096C223.038,170.852 225.796,171.591 227.039,173.745C228.282,175.898 227.544,178.655 225.39,179.899L213.153,186.964C211.439,187.954 209.341,187.687 207.93,186.451C207.84,186.407 207.756,186.347 207.682,186.273L195.003,173.594L184.921,173.594Z"/>
                <path d="M130.534,145.925C130.203,144.555 130.028,143.13 130.028,141.666C130.028,136.495 132.212,131.801 135.757,128.362C134.17,125.715 132.386,123.138 130.405,120.652C120.539,108.273 107.383,100.171 93.466,96.716L93.468,96.711C90.921,96.028 89.407,93.406 90.09,90.859C90.772,88.312 93.394,86.799 95.941,87.481L95.941,87.48C111.68,91.558 126.526,100.812 137.703,114.836C139.95,117.655 141.976,120.577 143.783,123.576C145.739,122.952 147.828,122.602 150,122.575L150.203,122.579C152.302,122.624 154.323,122.971 156.217,123.576C158.024,120.577 160.05,117.655 162.297,114.836C173.474,100.812 188.32,91.558 204.059,87.48L204.059,87.481C206.606,86.799 209.228,88.312 209.91,90.859C210.593,93.406 209.079,96.028 206.532,96.711L206.534,96.716C192.617,100.171 179.461,108.273 169.595,120.652C167.614,123.138 165.83,125.715 164.243,128.362C167.788,131.801 169.972,136.495 169.972,141.666C169.972,143.13 169.797,144.555 169.466,145.925L130.534,145.925Z"/>
        </g>
    </symbol>
    <symbol viewBox="0 0 32 32" id="arrow-up">
        <path fill="currentColor" d="M16.47,15.12,26.34,25a1,1,0,0,1-1.41,1.41l-9.06-9.06-8.8,8.8a1,1,0,0,1-1.41,0h0a1,1,0,0,1,0-1.42l9.61-9.61A.85.85,0,0,1,16.47,15.12Z"/>
        <path fill="currentColor" d="M16.47,5.54l9.87,9.88a1,1,0,0,1-1.41,1.41L15.87,7.77l-8.8,8.8a1,1,0,0,1-1.41,0h0a1,1,0,0,1,0-1.41l9.61-9.62A.85.85,0,0,1,16.47,5.54Z"/>
    </symbol>
    <symbol viewBox="0 0 1000 1000" id="arrow-right">
        <g fill="currentColor" transform="scale(0.25) translate(50%, 50%)">
            <path d="M593.4,500c0-13.1-5.2-25.6-14.5-34.9L138.3,24.5C119,5.2,87.8,5.2,68.5,24.5s-19.3,50.5,0,69.8L474.3,500L68.5,905.8c-19.3,19.3-19.3,50.5,0,69.8c9.6,9.6,22.3,14.5,34.9,14.5c12.6,0,25.3-4.8,34.9-14.5L579,534.9C588.2,525.6,593.4,513.1,593.4,500z M931.5,465.1L490.8,24.5c-19.3-19.3-50.5-19.3-69.8,0c-19.3,19.3-19.3,50.5,0,69.8L826.8,500L421,905.8c-19.3,19.3-19.3,50.5,0,69.8c9.6,9.6,22.3,14.5,34.9,14.5c12.6,0,25.3-4.8,34.9-14.5l440.7-440.7C950.8,515.6,950.8,484.4,931.5,465.1z"/>
        </g>
    </symbol>
    <symbol viewBox="0 0 14 14" id="yes">
        <path fill="green" d="M13 4.1974q0 .3097-.21677.5265L7.17806 10.329l-1.0529 1.0529q-.21677.2168-.52645.2168-.30968 0-.52645-.2168L4.01935 10.329 1.21677 7.5264Q1 7.3097 1 7t.21677-.5265l1.05291-1.0529q.21677-.2167.52645-.2167.30968 0 .52645.2167l2.27613 2.2839 5.07871-5.0864q.21677-.2168.52645-.2168.30968 0 .52645.2168l1.05291 1.0529Q13 3.8877 13 4.1974z"/>
    </symbol>
    <symbol viewBox="0 0 256 256" id="attention">
        <g fill="currentColor">
            <path data-title="Layer 0" xs="0" d="M120.2,21.8c-4.1,1.3-7.3,3.3-10.6,6.7c-1.8,1.8-16.3,27.1-49.7,86.1c-26,45.9-47.7,84.7-48.3,86.2c-5.8,14.9,4.4,31.5,20.6,33.9c5.7,0.8,185.7,0.8,191.4,0c11.7-1.7,20.2-10.3,21.9-21.9c1.3-8.9,3.8-3.8-49.2-97.6c-49.8-87.9-49.7-87.7-55.6-91.2C135.1,20.7,126.5,19.8,120.2,21.8z M137.4,65.1c5.5,2.7,7.9,9.1,7.9,21.6c0,8.5-4.5,60.9-5.7,66.5c-1.7,7.9-4.8,11.1-10.9,11.1c-5.4,0-8.4-3.3-10-11.3c-1.1-4.9-4.5-55-4.7-67.1c-0.1-10.7,0.7-13.7,4.6-17.8C123.2,63.4,131.4,62.2,137.4,65.1z M136.9,179.7c5.8,2.9,8.8,8.3,8.2,15.4c-0.7,8.7-7.7,14.5-16.8,13.8c-7.9-0.7-13.5-6-14.4-13.7s4-14.8,11.6-16.9C129.2,177.3,132.8,177.8,136.9,179.7z"/>
        </g>
    </symbol>
    <symbol viewBox="0 0 512 512" id="mail">
        <path fill="currentColor" transform="translate(40, 45) scale(0.85)" d="M461.913,83.478H50.087C22.467,83.478,0,105.974,0,133.565v244.87c0,27.622,22.498,50.087,50.087,50.087h411.826
			c27.578,0,50.087-22.453,50.087-50.087v-244.87C512,105.984,489.543,83.478,461.913,83.478z M460.563,116.87
			c-8.494,8.494-186.871,186.871-192.757,192.758c-6.527,6.526-17.085,6.526-23.612,0C238.303,303.735,59.927,125.36,51.437,116.87
			H460.563z M33.391,377.085V146.046l115.519,115.519L33.391,377.085z M62.567,395.13l109.954-109.954l48.061,48.061
			c19.526,19.528,51.304,19.529,70.834,0l48.061-48.061L449.432,395.13H62.567z M478.609,377.085L363.089,261.565l115.519-115.519
			V377.085z"/>
    </symbol>
    <symbol viewBox="0 0 94.25 100.25" id="up">
        <g fill="currentColor">
            <path d="M78.02,13.5H15.98c-0.829,0-1.5,0.671-1.5,1.5v20c0,0.829,0.671,1.5,1.5,1.5s1.5-0.671,1.5-1.5V16.5h59.04V35
                c0,0.829,0.671,1.5,1.5,1.5s1.5-0.671,1.5-1.5V15C79.52,14.172,78.849,13.5,78.02,13.5z"/>
            <path d="M48.093,29.973c-0.566-0.604-1.619-0.604-2.186,0l-12.22,13c-0.567,0.604-0.538,1.553,0.065,2.12
                c0.604,0.568,1.553,0.538,2.12-0.065l9.627-10.242V92c0,0.829,0.671,1.5,1.5,1.5s1.5-0.671,1.5-1.5V34.786l9.627,10.242
                c0.295,0.314,0.693,0.473,1.093,0.473c0.368,0,0.737-0.135,1.027-0.407c0.604-0.567,0.633-1.517,0.065-2.12L48.093,29.973z"/>
        </g>
    </symbol>
    <symbol viewBox="0 0 94.25 100.25" id="down">
        <g fill="currentColor">
            <path d="M83.388,63.888c-0.829,0-1.5,0.671-1.5,1.5v18.5h-63v-18.5c0-0.829-0.671-1.5-1.5-1.5s-1.5,0.671-1.5,1.5v20
                c0,0.829,0.671,1.5,1.5,1.5h66c0.829,0,1.5-0.671,1.5-1.5v-20C84.888,64.56,84.217,63.888,83.388,63.888z"/>
            <path d="M49.328,69.449c0.293,0.293,0.677,0.439,1.061,0.439s0.768-0.146,1.061-0.439l13-13c0.586-0.585,0.586-1.536,0-2.121
                c-0.586-0.586-1.535-0.586-2.121,0L51.89,64.767V8.388c0-0.829-0.671-1.5-1.5-1.5s-1.5,0.671-1.5,1.5v56.379L38.451,54.328
                c-0.586-0.586-1.535-0.586-2.121,0c-0.586,0.585-0.586,1.536,0,2.121L49.328,69.449z"/>
        </g>
    </symbol>
    <symbol viewBox="0 0 100.353 100.353" id="author">
        <g fill="currentColor" transform="scale(0.9) translate(5, 5)">
            <path d="M66.047,55.315c-15.28,0-27.711,12.432-27.711,27.713c0,0.828,0.671,1.5,1.5,1.5h52.422c0.828,0,1.5-0.672,1.5-1.5
                C93.758,67.746,81.327,55.315,66.047,55.315z M41.381,81.528c0.778-12.931,11.544-23.213,24.666-23.213
                s23.888,10.282,24.666,23.213H41.381z"/>
            <path d="M65.589,53.185c8.877,0,16.099-7.222,16.099-16.099s-7.222-16.099-16.099-16.099S49.49,28.209,49.49,37.086
                S56.712,53.185,65.589,53.185z M65.589,23.987c7.223,0,13.099,5.876,13.099,13.099s-5.876,13.099-13.099,13.099
                S52.49,44.309,52.49,37.086S58.366,23.987,65.589,23.987z"/>
            <path d="M38.342,61.399c-0.001,0.829,0.669,1.501,1.497,1.503c0.001,0,0.002,0,0.003,0c0.827,0,1.499-0.67,1.5-1.497l0.033-18.277
                c0.029-0.117,0.044-0.238,0.044-0.361V18.609l0.003-1.625c0-0.01-0.003-0.019-0.003-0.03v-0.019c0-0.03-0.009-0.058-0.011-0.088
                c-0.006-0.062-0.009-0.125-0.022-0.185c-0.07-0.379-0.278-0.722-0.598-0.949c-0.396-0.282-0.905-0.354-1.361-0.195L3.266,28.07
                c-0.599,0.208-1.002,0.77-1.008,1.404c-0.005,0.634,0.388,1.203,0.983,1.421l35.133,12.902L38.342,61.399z M8.218,29.527
                l30.2-10.483l-0.039,21.559L8.218,29.527z"/>
        </g>
    </symbol>
    <symbol viewBox="0 0 94.25 100.25" id="upload">
        <g fill="currentColor" transform="scale(1.5) translate(-15, -10)">
            <path d="M78.02,13.5H15.98c-0.829,0-1.5,0.671-1.5,1.5v20c0,0.829,0.671,1.5,1.5,1.5s1.5-0.671,1.5-1.5V16.5h59.04V35
            c0,0.829,0.671,1.5,1.5,1.5s1.5-0.671,1.5-1.5V15C79.52,14.172,78.849,13.5,78.02,13.5z"/>
            <path d="M48.093,29.973c-0.566-0.604-1.619-0.604-2.186,0l-12.22,13c-0.567,0.604-0.538,1.553,0.065,2.12
            c0.604,0.568,1.553,0.538,2.12-0.065l9.627-10.242V92c0,0.829,0.671,1.5,1.5,1.5s1.5-0.671,1.5-1.5V34.786l9.627,10.242
            c0.295,0.314,0.693,0.473,1.093,0.473c0.368,0,0.737-0.135,1.027-0.407c0.604-0.567,0.633-1.517,0.065-2.12L48.093,29.973z"/>
        </g>
    </symbol>
    <symbol viewBox="0 0 1000 1000" id="download">
        <g fill="currentColor">
            <path d="M867.5,989.3h-735C64.8,989.3,10,930.8,10,858.7V727.9h81.6v65.3c0,36.1,27.4,108.8,61.2,108.8h694.4c33.8,0,61.2-72.7,61.2-108.8v-65.3H990v130.7C990,930.8,935.2,989.3,867.5,989.3L867.5,989.3z M10,727.9V578.4h81.6v149.5C91.6,802.3,10,802.3,10,727.9L10,727.9z M908.4,727.9V578.4H990v149.5C990,802.3,908.4,802.3,908.4,727.9L908.4,727.9z M500,743.3c-33.8,0-61.3-29.3-61.3-65.3V10.7h122.6V678C561.3,714,533.9,743.3,500,743.3L500,743.3z M726.3,526.8L540.3,724.3c-11.5,12.3-27,19.2-43.4,19.2c-16.3,0-31.9-6.9-43.4-19.2l-181.8-197c-23.9-25.5-23.9-66.8,0-92.3c24.1-25.5,62.9-25.5,86.9,0l138.3,150.8l142.7-151.4c23.9-25.4,62.8-25.4,86.7,0C750.4,459.9,750.4,501.2,726.3,526.8L726.3,526.8z"/>
        </g>
    </symbol>
    <symbol viewBox="0 0 1000 1000" id="trash">
        <g fill="currentColor">
            <path d="M723.9,976H276c-61.8,0-112-50.1-112-111.8V276c0-15.5,12.6-28,28-28s28,12.5,28,28v588.2c0,30.7,25.1,55.8,56,55.8h447.9c30.9,0,56.1-25,56.1-55.8V276c0-15.5,12.6-28,28-28c15.4,0,28,12.5,28,28v588.2C836,925.9,785.7,976,723.9,976z"/><path d="M640,808c-15.4,0-28-12.5-28-28V388c0-15.5,12.6-28,28-28c15.5,0,28,12.5,28,28v392C668,795.5,655.4,808,640,808z M500,808c-15.4,0-28-12.5-28-28V388c0-15.5,12.6-28,28-28c15.4,0,28,12.5,28,28v392C528,795.5,515.4,808,500,808z M360,808c-15.5,0-28-12.5-28-28V388c0-15.5,12.5-28,28-28s28,12.5,28,28v392C388,795.5,375.4,808,360,808z M962,220H38c-15.4,0-28-12.5-28-28c0-15.5,12.5-28,28-28h266v-55.9c0-46.4,37.8-84.1,84.2-84.1h223.5c46.5,0,84.2,37.7,84.2,84.1V164h266c15.4,0,28,12.5,28,28C990,207.5,977.4,220,962,220z M360,164h280v-55.9c0-15.5-12.7-28.1-28.2-28.1H388.2c-15.6,0-28.2,12.6-28.2,28.1V164z"/>
        </g>
    </symbol>
    <symbol viewBox="0 0 256 256" id="trash-fat">
        <g fill="currentColor">
            <path d="M209.1,83.8H46.8c-8.1,0-14.7-6.6-14.7-14.8V54.3c0-8.1,6.6-14.8,14.8-14.8h44.3V24.8c0-8.1,6.6-14.8,14.8-14.8h44.3c8.1,0,14.8,6.6,14.8,14.8v14.8h44.3c8.1,0,14.8,6.6,14.8,14.8V69C223.8,77.1,217.2,83.7,209.1,83.8z M150.1,32.1c0-4.1-3.3-7.4-7.4-7.4h-29.5c-4.1,0-7.4,3.3-7.4,7.4v7.4h44.3L150.1,32.1L150.1,32.1z M209.1,98.5v118c0,16.3-13.2,29.5-29.5,29.5H76.3c-16.3,0-29.5-13.2-29.5-29.5v-118H209.1z M157.5,209.1c0,4.1,3.3,7.4,7.4,7.4c4.1,0,7.4-3.3,7.4-7.4v-88.5c0-4.1-3.3-7.4-7.4-7.4c-4.1,0-7.4,3.3-7.4,7.4V209.1z M120.6,209.1c0,4.1,3.3,7.4,7.4,7.4c4.1,0,7.4-3.3,7.4-7.4v-88.5c0-4.1-3.3-7.4-7.4-7.4c-4.1,0-7.4,3.3-7.4,7.4V209.1z M83.7,209.1c0,4.1,3.3,7.4,7.4,7.4s7.4-3.3,7.4-7.4v-88.5c0-4.1-3.3-7.4-7.4-7.4s-7.4,3.3-7.4,7.4V209.1z"/>
        </g>
    </symbol>
    <symbol viewBox="0 0 512 512" id="cloud">
        <g fill="currentColor">
            <path d="m211.3,156.2c-45.3,0-85.5,28.9-100,71.8-1.3,3.8-4.7,6.6-8.7,7-40.3,4.4-70.7,38.3-70.7,78.9 0,43.8 35.6,79.4 79.4,79.4h289.4c43.8,0 79.4-35.6 79.4-79.4 0-29.4-16.2-56.3-42.2-70.2-3.7-2-5.9-6-5.5-10.2 0.3-3.1 0.5-6.3 0.5-9.5 0-58.2-47.4-105.6-105.6-105.6-31,0-60.4,13.6-80.5,37.4-2.5,3-6.6,4.3-10.4,3.4-8.6-1.9-17-3-25.1-3zm189.4,258.1h-289.4c-55.3,0-100.3-45-100.3-100.3 0-49.1 35.2-90.4 82.8-98.7 19-48 65.4-79.9 117.5-79.9 7.8,0 15.7,0.8 23.8,2.4 23.9-25.5 57.2-40 92.2-40 69.7,0 126.4,56.7 126.4,126.4 0,1.6 0,3.1-0.1,4.7 29.4,18.2 47.4,50.2 47.4,85.1 0,55.3-45,100.3-100.3,100.3z"/>
            <path d="m211.3,156.2c-45.3,0-85.5,28.9-100,71.8-1.3,3.8-4.7,6.6-8.7,7-40.3,4.4-70.7,38.3-70.7,78.9 0,43.8 35.6,79.4 79.4,79.4h289.4c43.8,0 79.4-35.6 79.4-79.4 0-29.4-16.2-56.3-42.2-70.2-3.7-2-5.9-6-5.5-10.2 0.3-3.1 0.5-6.3 0.5-9.5 0-58.2-47.4-105.6-105.6-105.6-31,0-60.4,13.6-80.5,37.4-2.5,3-6.6,4.3-10.4,3.4-8.6-1.9-17-3-25.1-3zm189.4,258.1h-289.4c-55.3,0-100.3-45-100.3-100.3 0-49.1 35.2-90.4 82.8-98.7 19-48 65.4-79.9 117.5-79.9 7.8,0 15.7,0.8 23.8,2.4 23.9-25.5 57.2-40 92.2-40 69.7,0 126.4,56.7 126.4,126.4 0,1.6 0,3.1-0.1,4.7 29.4,18.2 47.4,50.2 47.4,85.1 0,55.3-45,100.3-100.3,100.3z"/>
        </g>
    </symbol>
    <symbol viewBox="0 0 1000 1000" id="add">
        <g fill="currentColor">
            <path d="M738.4,526.5h-212v212c0,14.7-11.9,26.5-26.5,26.5c-14.7,0-26.5-11.9-26.5-26.5v-212h-212c-14.6,0-26.5-11.9-26.5-26.5c0-14.6,11.9-26.5,26.5-26.5h212V261.6c0-14.7,11.9-26.5,26.5-26.6c14.7,0,26.5,11.9,26.5,26.6v212h212c14.6,0,26.5,11.9,26.5,26.5C764.9,514.6,753.1,526.5,738.4,526.5L738.4,526.5z"/>
        </g>
    </symbol>
    <symbol viewBox="0 0 1000 1000" id="settings">
        <g fill="currentColor">
            <path d="M585.8,999.4H444.5c-37.1,0-76.4-42.6-76.4-76.1v-50.5c0-4.7-21.5-10.1-34.3-16.3L303.2,891c-25.4,25.5-65.8,24.9-89.8,1l-99.5-99.4c-12-12-18.5-27.8-18.5-44.5c0-16.7,6.7-32.5,18.7-44.5l38.7-37.3c-3.8-8.3-7.4-16.6-10.7-25H92.4C59.2,641.3,10,606.8,10,570l0-141.3c0-37.1,48.9-70.1,82.4-70.1h49.9c4.6-11.5,9.9-24.6,15.9-37.4l-43.6-41.1c-12.6-12.6-19.2-28.5-19.3-45.4c-0.1-17.1,6.5-33.1,18.5-45.1l99.5-99.9c24.1-24.1,65.2-24.1,89.2,0l42.1,46.4c8.5-4,23.6-7.8,23.6-11.5V57.8c0-32.6,36.5-57.3,76.4-57.3h141.3c34.6,0,65,20.1,65,57.3v65.7c18.8,3.6,21.5,7.4,30,11.2L724,90.2c25.4-25.4,67.4-24.9,91.4-0.9l100.3,99.5c12,12.1,18.9,27.9,18.9,44.6c0,16.7-6.5,32.6-18.5,44.6l-41.9,40.7c6.5,13.8,12.3,27.9,17.3,40.1h47.7c32.6,0,50.9,30.1,50.9,70.1V570c0,34.6-13.7,71.3-50.9,71.3h-47.4c-3.8,9.5-7.6,18.5-11.5,27l35.3,32.5c12.8,12.8,19.5,28.7,19.6,45.6c0.1,17.1-6.5,33.1-18.5,45.1l-99.4,99.9c-24.1,24.1-65,24.1-89,0l-35.8-33.9c-13.2,6.2-22.7,11.6-41.6,16.3v49.4C650.8,956.5,622.5,999.4,585.8,999.4z M344.8,797c16.7,9.5,37.5,18,54.3,24.8c5.3,2.1,10.2,4.2,14.6,6l2.6,2.4c7,3,8.3,9.8,8.3,17.4v75.7c0,3.2,6.4,8.5,10,12.8c3.6,4.4,10.5,6.9,16.2,6.9l127.3-0.1c5.2,0,7.4-2.2,11-6c4.2-4.5,5.2-10.3,5.2-13.8v-74.6c0-7.6,7.7-14.5,14.8-17.4l7.4-2.4c4.5-1.9,10.3-3.9,15.8-6.1c16.9-6.7,38.3-15.1,55.1-24.5l6.5-3.6c7.5-4.2,16.9-2.8,22.9,3.4l42.5,44.2c3.5,3.7,8.4,5.7,13.5,5.8c5.1,0,9.9-2,13.5-5.6l81.7-82.1c3.6-3.6,5.6-8.6,5.5-13.7c-0.1-5.1-2.3-10-6.1-13.5l-46.2-42.5c-6.3-5.8-7.9-15.1-3.9-22.6l3.4-6.4c8.6-16.3,17-35.9,25.1-58.3l2.2-6.2c2.7-7.4,9.8-12.4,17.7-12.4h55.3c10.4,0,12.5-8.4,12.5-18.8V434c0-10.4-2.1-18.8-12.5-18.8h-54.7c-7.5,0-14.4-4.5-17.3-11.4l-2.4-5.7c-2.1-4.9-4.5-10.7-7-16.9c-6.8-16.8-15.3-37.8-24.6-54.3l-3.6-6.3c-4.3-7.5-2.9-16.9,3.3-22.8l52.5-51c3.6-3.5,5.7-8.3,5.7-13.4c0-5.1-2-9.9-5.5-13.5l-82.3-82c-3.6-3.6-8.5-5.6-13.6-5.5c-5.1,0.1-10,2.2-13.4,6l-51.7,55.3c-5.7,6.2-14.9,7.7-22.4,3.9l-6.3-3.3c-16.5-8.5-36.1-16.8-58-24.6l-9.5-2.2c-7.5-2.6-15.7-9.8-15.7-17.7V76c0-10.4-2.1-18.8-12.5-18.8H449.8c-10.4,0-25.2,8.4-25.2,18.8v74.8c0,7.9-1.8,15-9.3,17.7l-4.7,2.2c-20.9,7.5-40,16.1-56.6,24.9l-5.9,3.3c-7.4,3.9-16.2,2.4-22.1-3.5l-55-56.6c-3.5-3.6-8.3-5.7-13.4-5.7c-5,0-9.9,2-13.4,5.5l-82,82.3c-3.6,3.6-5.6,8.5-5.5,13.6c0.1,5.1,2.2,9.9,5.9,13.4l54.9,51.7c6.3,5.9,7.7,15.4,3.5,22.9l-3.6,6.4c-9.2,16.5-17.5,37.3-24.1,54c-2.1,5.4-4.1,10.4-6,14.8l-2.4,5.8c-2.9,7-9.8,11.6-17.4,11.6H92.4c-3.2,0.2-8.5,3.2-12.8,6.8c-4.4,3.6-6.9,8.9-6.9,14.6l0.1,126.8c0,5.5,2.4,10.7,6.6,14.3c4.4,3.7,9.8,7.1,13.1,7.1h75.8c8,0,15.1,5.1,17.8,12.6l2.2,6.3c6.4,18.4,14.8,37.6,24.1,55.7l3.2,6.2c3.8,7.4,2.3,16.4-3.7,22.2l-48.5,46.8c-3.6,3.5-5.7,8.3-5.8,13.4c0,5.1,2,9.9,5.6,13.5l82.1,81.7c3.6,3.6,8.5,5.6,13.7,5.5c5.1-0.1,9.9-2.3,13.4-6l42.8-45.9c5.9-6.4,15.5-7.8,23.1-3.5L344.8,797z"/>
            <path d="M506.3,302.1c-104.1,0-188.5,84.4-188.5,188.5S402.2,679,506.3,679c104.1,0,188.5-84.4,188.5-188.5S610.4,302.1,506.3,302.1z M506.3,641.3c-83.3,0-150.8-67.5-150.8-150.8s67.5-150.8,150.8-150.8c83.3,0,150.8,67.5,150.8,150.8S589.6,641.3,506.3,641.3z"/>
        </g>
    </symbol>
    <symbol viewBox="0 0 1000 1000" id="gears">
        <g fill="currentColor">
            <path d="M451.3,557.6c19.8-12.4,37.7-27.5,53.3-44.7l56,32.3l51-88.3l-55.9-32.3c7.1-21.7,11.3-44.7,12.1-68.6l63.6-11.2l-17.7-100.5l-63.6,11.2c-8.8-21.8-20.6-42-34.9-60.2l41.6-49.5l-78.1-65.6l-41.5,49.5c-20.3-10.9-42.2-19-65.4-23.9V41.3h-102v64.5c-23.2,4.9-45.1,13-65.4,23.9l-41.5-49.5l-78.1,65.6l41.6,49.5c-14.3,18.2-26.1,38.5-34.9,60.2l-63.6-11.2L10,344.8L73.6,356c0.8,23.9,5,46.9,12.1,68.6l-55.9,32.3l51,88.3l56-32.3c15.5,17.3,33.5,32.4,53.3,44.7l-22.1,60.7l95.9,34.9l22.1-60.7c11.4,1.6,23,2.5,34.8,2.5c11.8,0,23.4-0.8,34.8-2.5l22.1,60.7l95.9-34.9L451.3,557.6z M320.7,478.1c-71.8,0-130.3-58.4-130.3-130.3c0-71.8,58.4-130.3,130.3-130.3S450.9,276,450.9,347.8C450.9,419.6,392.5,478.1,320.7,478.1z"/><path d="M889.8,634.2l-44,14.2c-8.4-14.6-18.7-27.8-30.7-39.3l24.6-39.2l-61.9-38.8l-24.6,39.2c-15.5-5.7-31.8-9.3-48.7-10.5l-6.4-45.8l-72.3,10.1l6.4,45.8c-15.9,5.7-30.7,13.7-44,23.4l-34.3-31L505,616.6l34.4,31c-8.3,14.3-14.7,29.8-18.8,46.2l-46.2-1.7l-2.6,73l46.2,1.7c2.9,16.8,8.2,32.7,15.3,47.4l-36.4,28.4l44.9,57.6l36.5-28.5c12.7,10.7,26.9,19.6,42.2,26.5l-9.7,45.3l71.4,15.3l9.7-45.2c8.2,0,16.5-0.5,24.9-1.7c8.4-1.2,16.5-2.9,24.4-5.2l21.7,40.8l64.5-34.2l-21.7-40.9c12.8-10.7,24-23.2,33.3-37l42.9,17.4l27.4-67.7l-42.8-17.4c2.9-16.1,3.6-32.8,1.8-49.8l44-14.2L889.8,634.2z M705.2,828.9c-50.9,7.1-98.1-28.6-105.2-79.5c-7.1-50.9,28.6-98.1,79.5-105.2c50.9-7.1,98.1,28.6,105.2,79.5C791.7,774.6,756.1,821.8,705.2,828.9z"/><path d="M988.3,381.2l1.7-57.6l-36.5-1.1c-2.3-12.7-6.4-25.3-12.4-37.4l28.6-22.6l-35.7-45.2l-28.6,22.6c-10.2-8.5-21.5-15.4-33.5-20.6l7.4-35.8l-56.4-11.7l-7.4,35.8c-13,0-26.1,1.9-38.9,5.6l-17.3-32.1l-50.8,27.3l17.3,32.1c-10.2,8.6-19,18.6-26.1,29.4l-33.9-13.5L644.4,310l33.9,13.5c-2.2,12.9-2.7,26.1-1.2,39.3l-34.6,11.5l18.1,54.7l34.6-11.5c6.8,11.7,15,22,24.4,30.9l-19.2,31l49,30.3l19.2-31.1c12.4,4.4,25.3,7.1,38.5,8l5.3,36.2l57-8.3l-5.3-36.1c6.1-2.2,12.1-4.9,18-8.1c5.9-3.2,11.4-6.7,16.7-10.6l27.3,24.3l38.3-43l-27.3-24.3c6.5-11.5,11.4-23.8,14.5-36.5L988.3,381.2z M850.9,412c-35.8,19.2-80.5,5.8-99.7-29.9c-19.3-35.7-5.8-80.5,29.9-99.7c35.7-19.3,80.5-5.8,99.7,29.9C900.1,348.1,886.7,392.8,850.9,412z"/>
        </g>
    </symbol>
    <symbol viewBox="0 0 256 256" id="root">
        <g fill="currentColor">
            <path d="M151,201.6c0-7,5.7-12.6,12.6-12.6c7,0,12.6,5.7,12.6,12.6c0,7-5.7,12.6-12.6,12.6 C156.7,214.2,151,208.6,151,201.6z M96.2,189c-7,0-12.6,5.7-12.6,12.6c0,7,5.7,12.6,12.6,12.6c7,0,12.6-5.7,12.6-12.6 C108.9,194.6,103.2,189,96.2,189z M57.7,146.1c-2.3-3.2-5.8-5.4-10.1-5.4c-7,0-12.6,5.7-12.6,12.6c0,7,5.7,12.6,12.6,12.6 s12.6-5.7,12.6-12.6c0-1.4-0.4-2.7-0.8-4L57.7,146.1z M141.8,49.6c0-7-5.7-12.6-12.6-12.6c-7,0-12.6,5.7-12.6,12.6 s5.7,12.6,12.6,12.6C136.1,62.2,141.8,56.5,141.8,49.6z M208.2,140.8c-4.2,0-7.8,2.2-10.1,5.4l-1.8,3.3c-0.4,1.3-0.8,2.6-0.8,4 c0,7,5.7,12.6,12.6,12.6c7,0,12.6-5.7,12.6-12.6S215.2,140.8,208.2,140.8z M246,128c0,65.2-52.8,118-118,118 c-65.2,0-118-52.8-118-118C10,62.8,62.8,10,128,10C193.2,10,246,62.8,246,128z M233.5,153.4c0-14-11.3-25.3-25.3-25.3 c-6.2,0-11.9,2.3-16.3,6.1c-14.5-7.6-33.7-17.4-40-20.1c-7-3-11.2-8.7-13.8-14.4c-1.1-6-1.5-12.8-1.4-17.4v-8.8 c10.1-3.3,17.5-12.7,17.5-24c0-14-11.3-25.3-25.3-25.3c-14,0-25.3,11.3-25.3,25.3c0,11.3,7.5,20.8,17.7,24v8.7 c-0.1,0.5,0,1.3,0,1.9c-0.4,5-2.8,23.5-17.7,29.9c-6.2,2.7-25.5,12.5-39.9,20.1c-4.4-3.7-10-6.1-16.3-6.1 c-14,0-25.3,11.3-25.3,25.3s11.3,25.3,25.3,25.3c14,0,25.3-11.3,25.3-25.3c0-3.1-0.6-6.1-1.7-8.8c13.7-7.2,31.1-16.1,37.1-18.7 c-2.8,4.9-5.6,9.8-7.2,12.9c-7.3,14.1-6.6,32-6.6,32.5v5.1c-13.2,0.9-23.7,11.7-23.7,25.1c0,14,11.3,25.3,25.3,25.3 s25.3-11.3,25.3-25.3c0-10-5.8-18.5-14.3-22.7v-7.9c-0.2-4.2,0.4-17.2,5.2-26.4c3.7-7.2,14.1-24.9,16.1-28c0.4-0.7,0.8-1.5,1.1-2.3 c0.4,0.8,0.8,1.7,1.2,2.3c2,3,12.5,20.6,16.3,27.9c5.8,11,5.2,26.3,5.2,26.7v7.7c-8.3,4.1-14,12.6-14,22.5 c0,14,11.3,25.3,25.3,25.3c14,0,25.3-11.3,25.3-25.3c0-13.5-10.6-24.4-23.9-25.1v-4.8c0-0.8,0.7-18.7-6.7-32.8 c-1.3-2.5-3.5-6.4-5.9-10.6c8,3.9,21.2,10.6,32.1,16.4c-1,2.7-1.7,5.7-1.7,8.8c0,14,11.3,25.3,25.3,25.3S233.5,167.4,233.5,153.4z" />
        </g>
    </symbol>
    <symbol viewBox="0 0 24 24" id="info2">
        <g stroke="currentColor" stroke-width="2" stroke-linecap="round" stroke-linejoin="round">
            <circle fill="transparent" cx="12" cy="12" r="10"></circle>
            <line x1="12" y1="16" x2="12" y2="12"></line>
            <line x1="12" y1="8" x2="12.01" y2="8"></line>
        </g>
    </symbol>
    <symbol viewBox="0 0 24 24" id="filter2">
        <g fill="currentColor" stroke="currentColor" stroke-width="2" stroke-linecap="round" stroke-linejoin="round">
            <polygon points="22 3 2 3 10 12.46 10 19 14 21 14 12.46 22 3"></polygon>
        </g>
    </symbol>
    <symbol viewBox="0 0 24 24" id="unsorted">
        <g fill="currentColor" stroke="currentColor" stroke-width="2" stroke-linecap="round" stroke-linejoin="round">
            <line x1="18" y1="20" x2="18" y2="10"></line>
            <line x1="12" y1="20" x2="12" y2="4"></line>
            <line x1="6" y1="20" x2="6" y2="10"></line>
        </g>
    </symbol>
    <symbol viewBox="0 0 24 24" id="sorted">
        <g fill="currentColor" stroke="currentColor" stroke-width="2" stroke-linecap="round" stroke-linejoin="round">
            <line x1="12" y1="20" x2="12" y2="10"></line><line x1="18" y1="20" x2="18" y2="4"></line><line x1="6" y1="20" x2="6" y2="16"></line>
        </g>
    </symbol>
    <symbol viewBox="0 0 256 256" id="details">
        <g fill="currentColor">
            <path d="M238.1,10H17.9c-4.4,0-7.9,3.5-7.9,7.9V128h15.7V25.7h204.5v204.5H128V246h110.1c4.3,0,7.9-3.5,7.9-7.9V17.9C246,13.5,242.5,10,238.1,10L238.1,10z M10,246h94.4v-94.4H10V246L10,246z M25.7,167.3h62.9v62.9H25.7V167.3L25.7,167.3z M198.8,112.3h15.7V41.5h-70.8v15.7h43.9l-73.1,73.1l11.1,11.1l73.1-73.1V112.3L198.8,112.3z"/>
        </g>
    </symbol>
    <symbol viewBox="0 0 256 256" id="storage">
        <g fill="currentColor">
            <path d="M115.5,10.5c-11.8,0.9-25.9,3.7-36.1,7.3c-6.1,2.1-16.1,6.9-20.8,10.1c-9.3,6.1-16,14.1-18.5,21.9c-1,3.1-1,3.3-0.2,5.9c6.4,20.7,36.5,36.6,75.5,39.8c47,3.9,93-14.2,100.7-39.6c0.8-2.7,0.8-2.9-0.1-6c-1.7-5.7-5.9-11.5-11.9-16.9C186.1,16.9,150.4,7.8,115.5,10.5z"/><path d="M38.8,83c0,14,0.1,21.4,0.4,21.4c0.3,0,0.5,0.3,0.5,0.7c0,1.5,2.1,6,4.3,9.5c10.9,16.6,38.5,28.8,71.5,31.4c8.7,0.7,24.6,0.3,32.8-0.8c32.3-4.3,56.9-17,65.7-34c1-1.9,2-4.3,2.2-5.2c0.1-0.9,0.5-1.7,0.7-1.7c0.2,0,0.4-9.2,0.4-21.4c0-19.2-0.1-21.1-0.7-18.7c-4.5,18.6-29.5,34.3-63,39.8c-12.9,2.1-31.3,2.5-43.7,1c-37.6-4.5-65.5-20.7-70.3-40.8C38.9,61.9,38.8,63.7,38.8,83z"/><path d="M38.8,133.5c0,12.2,0.1,21.4,0.4,21.4c0.2,0,0.6,0.8,0.7,1.7c0.2,0.9,1.2,3.3,2.2,5.3c8.4,16.5,31.6,28.8,63.8,33.8c6,0.9,8.7,1,22.2,1c13.6,0,16.1-0.1,22.2-1c23.7-3.7,41.3-10.7,53.8-21.4c5.8-4.9,11.2-12.9,12.1-17.8c0.1-0.8,0.5-1.5,0.7-1.5c0.2,0,0.4-9.2,0.4-21.4c0-19.7-0.1-21.1-0.7-18.5c-0.4,1.6-1.4,4.3-2.3,6c-15.3,30.1-77.7,44.5-128.9,29.8c-24.5-7-42.2-20.9-45.9-35.9C38.9,112.4,38.8,114.1,38.8,133.5z"/><path d="M38.9,183.3l0.1,20.5l1.2,3.2c4.2,10.8,13.3,19.4,28.1,26.6c37.7,18.4,96.3,16.1,128.9-5.2c3.2-2.1,6.4-4.7,9.5-7.9c5-5.1,7.1-8.2,9.2-13.4l1.2-3.2l0.1-20.5c0.1-18.3,0-20.3-0.6-17.9c-1.6,6.4-5,11.7-11.1,17.6c-12.3,11.8-32.7,19.9-58.4,23.3c-8.5,1.1-29.6,1.1-38.3,0c-15.7-2-29.5-5.9-40.6-11.3c-7.8-3.8-12.6-7.1-17.7-11.8c-6.2-5.9-9.6-11.3-11.2-17.7C38.9,163,38.8,165,38.9,183.3z"/>
        </g>
    </symbol>
    <symbol viewBox="0 0 256 256" id="batch">
        <g fill="currentColor">
            <path d="M216.5,246H128c-16.3,0-29.5-13.2-29.5-29.5V128c0-16.3,13.2-29.5,29.5-29.5h88.5 c16.3,0,29.5,13.2,29.5,29.5v88.5C246,232.8,232.8,246,216.5,246z M216.5,142.8c0-8.1-6.6-14.8-14.8-14.8h-59 c-8.1,0-14.8,6.6-14.8,14.8v59c0,8.1,6.6,14.8,14.8,14.8h59c8.1,0,14.8-6.6,14.8-14.8V142.8z M83.8,98.5v103.3 c-16.3,0-29.5-13.2-29.5-29.5V83.8c0-16.3,13.2-29.5,29.5-29.5h88.5c16.3,0,29.5,13.2,29.5,29.5H98.5 C90.4,83.8,83.8,90.4,83.8,98.5z M39.5,54.3v103.3C23.2,157.5,10,144.3,10,128V39.5C10,23.2,23.2,10,39.5,10H128 c16.3,0,29.5,13.2,29.5,29.5H54.3C46.1,39.5,39.5,46.1,39.5,54.3z"/>
        </g>
    </symbol>
    <symbol viewBox="0 0 256 256" id="website">
        <g fill="currentColor">
            <path d="M128,10C62.8,10,10,62.8,10,128c0,65.2,52.8,118,118,118c65.2,0,118-52.8,118-118C246,62.8,193.2,10,128,10 z M80.9,37.3c5.1-2.7,10.5-5,16.1-6.7c-5.8,8.5-10.8,19.3-14.7,31.9c-5.9-3.7-9.3-8.2-9.3-13.1C72.9,44.9,75.9,40.8,80.9,37.3z  M58,53.6c1.8,9.2,9.1,17.5,20.3,23.7c-2.9,13.1-4.7,27.5-5.2,42.8h-47C28.1,94.8,39.4,71,58,53.6z M58,202.4 c-18.6-17.4-29.9-41.2-31.8-66.5h47c0.5,15.3,2.3,29.7,5.2,42.8C67,184.8,59.8,193.2,58,202.4z M80.9,218.7 c-4.9-3.5-7.9-7.6-7.9-12c0-4.9,3.4-9.4,9.3-13.1c3.9,12.5,8.9,23.3,14.7,31.9C91.4,223.7,86,221.4,80.9,218.7z M120.1,228.2 c-9.9-5.2-18.4-20.1-24.1-40.7c7.8-2.3,15.9-3.7,24.1-4.1V228.2L120.1,228.2z M120.1,167.8c-9.3,0.5-18.5,2.2-27.5,5 c-2.2-12.2-3.5-24.5-3.9-36.9h31.3V167.8z M120.1,120.1H88.8c0.3-12.4,1.6-24.7,3.9-36.9c8.9,2.8,18.1,4.5,27.5,5V120.1z  M120.1,72.6c-8.2-0.4-16.2-1.8-24.1-4.1c5.7-20.6,14.2-35.5,24.1-40.7V72.6z M198,53.6c18.6,17.4,29.9,41.2,31.8,66.5h-47 c-0.5-15.3-2.3-29.7-5.2-42.8C189,71.1,196.2,62.8,198,53.6L198,53.6z M175.1,37.3c4.9,3.5,7.9,7.6,7.9,12c0,4.9-3.4,9.3-9.3,13.1 c-3.9-12.5-8.9-23.3-14.7-31.9C164.6,32.3,170,34.6,175.1,37.3L175.1,37.3z M135.9,27.8c9.9,5.2,18.4,20.1,24.1,40.7 c-7.8,2.3-15.9,3.7-24.1,4.1V27.8z M135.9,88.2c9.3-0.5,18.5-2.2,27.5-5c2.1,11.3,3.5,23.7,3.9,36.9h-31.3V88.2z M135.9,135.9h31.3 c-0.4,13.2-1.7,25.6-3.9,36.9c-8.9-2.8-18.1-4.5-27.5-5V135.9z M135.9,228.2v-44.8c8.2,0.4,16.2,1.8,24.1,4.1 C154.3,208.1,145.8,223,135.9,228.2z M175.1,218.7c-5.1,2.7-10.5,5-16.1,6.7c5.8-8.5,10.8-19.3,14.7-31.9c5.9,3.7,9.3,8.2,9.3,13.1 C183.1,211.1,180.1,215.2,175.1,218.7z M198,202.4c-1.8-9.2-9.1-17.5-20.4-23.7c3.1-14.1,4.8-28.4,5.2-42.8h47 C227.9,161.2,216.6,185,198,202.4L198,202.4z"/>
        </g>
    </symbol>
    <symbol viewBox="0 0 256 256" id="report">
        <g fill="currentColor">
            <path d="M179.6,113.2H76.4c-4.1,0-7.4,3.3-7.4,7.4s3.3,7.4,7.4,7.4h103.2c4.1,0,7.4-3.3,7.4-7.4C187,116.6,183.7,113.2,179.6,113.2L179.6,113.2z M216.5,216.5c0,8.1-6.6,14.8-14.7,14.8H54.3c-8.1,0-14.8-6.6-14.8-14.8V69c0-8.1,6.6-14.8,14.8-14.8h22.1v29.5h103.2V54.3h22.1c8.1,0,14.7,6.6,14.7,14.8V216.5L216.5,216.5z M91.1,39.5h16.4c0-8.1,9.2-14.7,20.5-14.7c11.3,0,20.5,6.6,20.5,14.7h16.4V69H91.1V39.5L91.1,39.5z M201.8,39.5h-22.1V24.8h-19.9C153.4,16,141.6,10,128,10s-25.4,6-31.8,14.8H76.4v14.7H54.3c-16.3,0-29.5,13.2-29.5,29.5v147.5c0,16.3,13.2,29.5,29.5,29.5h147.5c16.3,0,29.5-13.2,29.5-29.5V69C231.3,52.7,218.1,39.5,201.8,39.5L201.8,39.5z M179.6,187H76.4c-4.1,0-7.4,3.3-7.4,7.4c0,4.1,3.3,7.4,7.4,7.4h103.2c4.1,0,7.4-3.3,7.4-7.4C187,190.3,183.7,187,179.6,187L179.6,187z M179.6,150.1H76.4c-4.1,0-7.4,3.3-7.4,7.4c0,4.1,3.3,7.4,7.4,7.4h103.2c4.1,0,7.4-3.3,7.4-7.4C187,153.4,183.7,150.1,179.6,150.1L179.6,150.1z"/>
        </g>
    </symbol>
    <symbol viewBox="0 0 256 256" id="scan">
        <g fill="currentColor">
            <path d="M246,153.9"/><path d="M246,153.9"/><path d="M65.5,103"/><path d="M196.6,97.6c-3.8,0-8.1-1.3-8.1-5.1V53.6c0-4.6-2.6-7.3-7.3-7.3h-45.5c-3.7,0-6.2-4.3-6.2-8.1c0-3.8,3-6.8,6.8-6.8h45.4c5.8,0,11.3,2.2,15.3,6.3c4.1,4.1,6.3,9.5,6.3,15.3v37.7C203.4,94.7,200.5,97.6,196.6,97.6z"/><path d="M31.6,224c-5.8,0-11.3-2.2-15.3-6.3c-4.1-4.1-6.3-9.5-6.3-15.3v-37.2c0-3.3,2-6.8,6.5-6.8c4.1,0,8.1,4.8,8.1,8.4v35.5c0,4.6,2.6,7.3,7.3,7.3H71c1.3,0,2.3,0.5,3.1,1.4c1.2,1.4,1.8,3.9,1.5,6v0v0c0,3.8-3,6.8-6.8,6.8L31.6,224L31.6,224z"/><path d="M16.8,97.6c-3.7,0-6.8-3.3-6.8-7.3V53.1c0-5.8,2.2-11.3,6.3-15.3c4.1-4.1,9.5-6.3,15.3-6.3h37.7c3.3,0,6.8,2,6.8,6.5c0,4.1-4.8,8.1-8.4,8.1H32.2c-4.6,0-7.3,2.6-7.3,7.3v35.8C24.9,93,20.5,97.6,16.8,97.6z"/><path d="M136.3,224.6c-3.9,0-6.8-2.9-6.8-6.8c0-3.9,2.4-8.1,6.2-8.1h45.2c4.6,0,7.3-2.6,7.3-7.3v-35.5c0-3.9,4.4-8.4,8.1-8.4c1.9,0,3.6,0.8,4.8,2.2c1.1,1.3,1.6,2.9,1.4,4.5v0v37.8c0,5.8-2.2,11.3-6.3,15.3c-4.1,4-9.5,6.3-15.3,6.3H136.3z"/><path d="M23,136.7c-3.3,0-6.1-3.3-6.1-7.3c0-4,2.7-7.3,6.1-7.3h167.1c3.3,0,6.1,3.3,6.1,7.3c0,4-2.7,7.3-6.1,7.3H23z"/>
        </g>
    </symbol>
    <symbol viewBox="0 0 256 256" id="tags">
        <g fill="currentColor">
            <path d="M240.9,134.3c0,0-5,5-11.4,11.3c-30.5-30.1-82.2-81.7-99.2-98.7c-17-16.9-72.9-15.3-98.4-15.2c0.5-17.3,8.3-29.3,28.1-29.3c19.8,0,72.3-0.7,86.2,13.1c13.9,13.8,94.8,94.1,94.8,94.1C247.7,116.5,247.7,127.5,240.9,134.3z M124.3,54.1c13.9,13.8,94.8,94.1,94.8,94.1c6.9,6.8,6.9,17.9,0,24.7l-76.1,75.6c-6.9,6.8-18,6.8-24.8,0c0,0-81.2-80.6-94.8-94.1C9.8,140.8,9.6,86,10.1,68.7c0.5-17.3,8.1-27.7,28-27.7S110.5,40.3,124.3,54.1z M35.5,91.6c7.1,7,18.6,7,25.7,0c7.1-7,7.1-18.5,0-25.5c-7.1-7-18.6-7-25.7,0C28.4,73.1,28.4,84.5,35.5,91.6z"/>
        </g>
    </symbol>
    <symbol viewBox="0 0 256 256" id="chunk">
        <g fill="currentColor">
            <path d="M112.9,240.2l-98.5-98.5c-2.9-2.9-4.3-6.1-4.3-9.6c0-2.4,0.7-4.8,2.2-7.1c1.5-2.3,3.6-4.2,6.4-5.9c6-3.6,12.1-7.6,18.3-12c3.8-2.7,6.7-5.5,8.7-8.4c2-2.9,3-5.7,3-8.3c0-3.8-1.9-6.6-5.7-8.7c-2.9-1.6-5.6-3.2-8.1-4.8c-1.3-0.8-2.6-2-4.1-3.4c-1.5-1.4-3.1-3.2-4.8-5.2c-1.7-2-3.2-4.4-4.5-7c-1.3-2.6-2-5.2-2.3-7.7c-0.2-1.2-0.3-2.3-0.3-3.4c0-8.2,2.9-15.2,8.7-21c5.8-5.8,12.8-8.7,21-8.7c8.2,0,15.2,2.9,21,8.7c3.5,3.6,7.1,8.8,10.7,15.5c2,3.8,4.9,5.7,8.7,5.7c2.6,0,5.4-1,8.3-3c2.9-2,5.7-4.9,8.4-8.7c4.4-6.2,8.4-12.3,12-18.3c2-3.2,4.5-5.8,7.7-7.6c3.2-1.9,6.5-2.8,10-2.8c3.2,0,6.2,0.8,9.1,2.5c6,3.6,12.1,7.6,18.3,12c3.8,2.7,6.7,5.5,8.7,8.4c2,2.9,3,5.7,3,8.3c0,3.8-1.9,6.6-5.7,8.7c-6.7,3.6-11.9,7.2-15.5,10.8c-5.8,5.7-8.7,12.7-8.7,20.9c0,8.2,2.9,15.2,8.7,21c5.8,5.8,12.8,8.7,21,8.7c8.2,0,15.2-2.9,20.9-8.7c3.6-3.6,7.2-8.8,10.8-15.5c2-3.8,4.9-5.7,8.7-5.7c2.6,0,5.4,1,8.3,3s5.7,4.9,8.4,8.7c4.4,6.2,8.4,12.3,12,18.3c2,3.3,3.1,7.3,3.1,11.8c0,3.6-0.7,7.2-2,10.6c-1.3,3.5-3.2,6.4-5.7,8.8l-97.6,97.7c-3.8,3.9-8.5,5.8-13.9,5.8C121.3,246,116.7,244.1,112.9,240.2z"/>
        </g>
    </symbol>
</svg>
